<svg id="visual" viewBox="0 0 755 190" width="755" height="100" xmlns="http://www.w3.org/2000/svg" xmlns:xlink="http://www.w3.org/1999/xlink" version="1.1"><path d="M0 92L14 96.7C28 101.3 56 110.7 84 112C112 113.3 140 106.7 168 107.3C196 108 224 116 252 112.2C280 108.3 308 92.7 335.8 87.5C363.7 82.3 391.3 87.7 419.2 96C447 104.3 475 115.7 503 117C531 118.3 559 109.7 587 108.7C615 107.7 643 114.3 671 111.3C699 108.3 727 95.7 741 89.3L755 83L755 0L741 0C727 0 699 0 671 0C643 0 615 0 587 0C559 0 531 0 503 0C475 0 447 0 419.2 0C391.3 0 363.7 0 335.8 0C308 0 280 0 252 0C224 0 196 0 168 0C140 0 112 0 84 0C56 0 28 0 14 0L0 0Z" fill="#bc5473"></path><path d="M0 54L14 56.3C28 58.7 56 63.3 84 66.8C112 70.3 140 72.7 168 75.8C196 79 224 83 252 80.7C280 78.3 308 69.7 335.8 65.2C363.7 60.7 391.3 60.3 419.2 60.8C447 61.3 475 62.7 503 66C531 69.3 559 74.7 587 70.7C615 66.7 643 53.3 671 48.5C699 43.7 727 47.3 741 49.2L755 51L755 0L741 0C727 0 699 0 671 0C643 0 615 0 587 0C559 0 531 0 503 0C475 0 447 0 419.2 0C391.3 0 363.7 0 335.8 0C308 0 280 0 252 0C224 0 196 0 168 0C140 0 112 0 84 0C56 0 28 0 14 0L0 0Z" fill="#973150"></path></svg>